@startuml
class Car {
}

class Engine {
}

class Stereo {
}

class Door {
}

class Pistons {
}

class SparkPlugs {
}

class Radio {
}

class Cassette {
}

class Handle {
}

class Tuner {
}

Car *-- Engine
Car *-- Stereo
Car *-- Door

Engine *-- Pistons
Engine *-- SparkPlugs

Stereo *-- Radio
Stereo *-- Cassette

Radio *-- Tuner

Door *-- Handle
@enduml
